<?xml version="1.0" standalone="no"?>
<!DOCTYPE svg PUBLIC "-//W3C//DTD SVG 20010904//EN"
 "http://www.w3.org/TR/2001/REC-SVG-20010904/DTD/svg10.dtd">
<svg version="1.0" xmlns="http://www.w3.org/2000/svg"
 width="147.000000pt" height="147.000000pt" viewBox="0 0 147.000000 147.000000"
 preserveAspectRatio="xMidYMid meet">
<metadata>
Created by potrace 1.11, written by Peter Selinger 2001-2013
</metadata>
<g transform="translate(0.000000,147.000000) scale(0.100000,-0.100000)"
fill="#000000" stroke="none">
<path d="M495 1260 c-76 -26 -125 -54 -177 -100 -49 -43 -58 -57 -35 -57 6 0
29 -3 50 -7 20 -4 37 -3 37 1 0 16 105 72 165 88 129 33 265 3 365 -81 l32
-27 23 29 c14 16 24 32 25 36 1 24 -148 108 -225 127 -61 15 -203 10 -260 -9z"/>
<path d="M1182 1245 c-23 -7 -55 -21 -70 -30 -52 -33 -143 -138 -184 -213
l-41 -75 -16 33 c-9 18 -26 40 -39 48 l-23 15 4 -52 5 -52 -22 19 c-35 32
-118 70 -88 40 7 -7 12 -34 12 -60 0 -40 5 -54 25 -73 17 -15 22 -26 15 -30
-13 -8 -44 11 -109 69 -144 128 -286 190 -433 188 -86 -1 -179 -26 -205 -54
-15 -17 -14 -18 19 -18 54 0 101 -37 111 -88 7 -38 12 -43 42 -42 3 0 18 -6
34 -15 39 -20 71 -62 71 -94 0 -25 2 -26 59 -26 50 0 66 -5 102 -30 23 -16 50
-46 60 -65 17 -30 17 -36 4 -57 -23 -35 -19 -42 21 -36 33 5 35 4 27 -13 -25
-47 -23 -82 7 -139 l30 -56 -27 -23 -26 -23 42 -7 c43 -7 124 -43 174 -78 15
-11 27 -17 27 -14 0 4 -18 32 -39 64 -22 31 -47 76 -56 99 -17 43 -28 52 -40
33 -12 -19 -26 -10 -41 25 -19 46 -18 68 5 96 17 21 22 22 41 11 22 -13 45 -7
34 9 -15 24 6 56 44 67 49 15 122 106 122 152 0 25 4 30 24 30 30 0 41 15 38
52 -2 18 6 35 25 52 25 24 51 31 137 38 22 2 30 9 33 26 9 64 60 116 122 127
27 4 42 13 49 30 15 34 70 71 127 87 l50 14 -54 23 c-64 27 -168 35 -229 16z"/>
<path d="M1035 892 c-2 -2 2 -20 7 -40 6 -20 8 -64 5 -97 -13 -149 -98 -271
-232 -336 -33 -16 -65 -29 -72 -29 -22 0 -24 -20 -6 -50 9 -16 25 -30 34 -30
36 0 160 73 212 125 77 75 115 145 141 259 10 40 9 173 -1 188 -7 11 -79 19
-88 10z"/>
<path d="M149 838 c-7 -17 -3 -106 7 -154 28 -136 130 -271 250 -332 83 -42
101 -46 119 -29 8 9 20 17 27 19 16 6 3 37 -19 44 -182 62 -300 209 -307 384
-2 58 -10 70 -47 70 -16 0 -29 -1 -30 -2z"/>
</g>
</svg>
