<svg xmlns="http://www.w3.org/2000/svg" viewBox="0 0 360 304.28"><defs><style>.cls-1{fill:#c8102e;}</style></defs><title>barrel</title><g id="Layer_2" data-name="Layer 2"><g id="Layer_1-2" data-name="Layer 1"><path class="cls-1" d="M72.61,144.74V82.15c-15.23,1.94-30.44,4.35-45.64,7v55.57Z"/><path class="cls-1" d="M287,237.75v51.3q20.13-5.32,39.91-12.49h0a9.16,9.16,0,0,0,5.74-8.73V231.26Q309.84,235,287,237.75Z"/><path class="cls-1" d="M92.22,144.74H267.39V78.34a950.84,950.84,0,0,0-175.17.56Z"/><path class="cls-1" d="M92.22,240.25v55.53a455.62,455.62,0,0,0,175.17,0v-55A966.92,966.92,0,0,1,92.22,240.25Z"/><path class="cls-1" d="M332.64,144.74V88q-22.8-3.83-45.65-6.61v63.31Z"/><path class="cls-1" d="M72.61,222.13V159.54H27v55.57C42.17,217.78,57.38,220.19,72.61,222.13Z"/><path class="cls-1" d="M267.39,63.47V8.5a455.62,455.62,0,0,0-175.17,0V64A966,966,0,0,1,267.39,63.47Z"/><path class="cls-1" d="M267.39,159.54H92.22v65.84a950.84,950.84,0,0,0,175.17.56Z"/><path class="cls-1" d="M72.61,237Q49.77,234.17,27,230.21v37.62a9.16,9.16,0,0,0,5.74,8.73q19.76,7.19,39.9,12.49Z"/><path class="cls-1" d="M72.61,67.25v-52Q52.5,20.56,32.71,27.72A9.16,9.16,0,0,0,27,36.45V74.07Q49.77,70.14,72.61,67.25Z"/><path class="cls-1" d="M287,159.54v63.31q22.85-2.76,45.65-6.61v-56.7Z"/><path class="cls-1" d="M287,66.53q22.85,2.72,45.65,6.49V36.45a9.16,9.16,0,0,0-5.74-8.73h0Q307.13,20.52,287,15.23Z"/><path class="cls-1" d="M340.43,262.48V41.8A9.78,9.78,0,0,1,350.21,32h0A9.78,9.78,0,0,1,360,41.8V262.48a9.78,9.78,0,0,1-9.79,9.78h0A9.78,9.78,0,0,1,340.43,262.48Z"/><path class="cls-1" d="M0,262.48V41.8A9.78,9.78,0,0,1,9.79,32h0a9.78,9.78,0,0,1,9.78,9.78V262.48a9.78,9.78,0,0,1-9.78,9.78h0A9.78,9.78,0,0,1,0,262.48Z"/></g></g></svg>