<svg id="Layer_1" data-name="Layer 1" xmlns="http://www.w3.org/2000/svg" viewBox="0 0 145.4 145.44"><defs><style>.cls-1{fill:#da1a32;}.cls-2{fill:#fff;}</style></defs><title>bat-icon</title><path class="cls-1" d="M22.5,39.26C8,38.8-.36,45,0,45.93c.17.44,6.83-.62,11.3,3s3.26,9.42,3.81,10.39c.36.64,5.58-.86,10,3,6.77,6,2.82,9.71,3.69,10.47.7.62,3.53-1.59,10.47,0a19,19,0,0,1,12.09,9c1.56,2.83,1.43,4.31,1.17,5.09-.76,2.21-3.54,4-2.81,4.84S53,91,55.3,90.88s1.91,1.06,1,2.67-2.41,6.18-1,10.19,5.79,8.06,5,8.8a39.13,39.13,0,0,1-5.21,3.74c-.93.42,4.15,1,7.12,1.9a63.65,63.65,0,0,1,13.39,6.62c3.48,2.48,3.19,2.36,3.6,2.2s-4.39-5.74-7.78-11.63c-3.57-6.18-3.55-9.16-4.28-9.53-.48-.24-.66.76-2.2,2.5-.74.83-1.17,1.08-1.25,1s-6-7.38-3.24-12.73,4.79-3.58,6.06-2.18,1.5,1.13,2.44.61-1.21-5.59,1.34-7.46,5.74-.71,8.16-3.4,3.84-6.55,5.89-8.37,1.43-2.77,1.62-5,.25-3,.25-3,3.07,1.46,5.13-.46.32-6.16.32-6.16,1.12-3.1,5.89-5.58S110,55,110.88,54.12s.29-8.14,6.91-13.36c3.31-2.61,7.85-1.88,9.19-2.61,1.1-.6,1.59-4.88,6.88-8.19,5-3.16,11.51-3.55,11.54-3.7.15-.74-5.77-4.88-17.28-5.45a28.57,28.57,0,0,0-20.82,7.33A63.61,63.61,0,0,0,95.21,42.27a93.19,93.19,0,0,0-6.67,12.85,13.93,13.93,0,0,0-1.83-5.53c-1.58-2.53-3.87-4.92-5.5-4.46s.58,1.35.54,4.14S81.48,56,81.48,56s-.08-2.6-4.62-5.47-6.6-3.25-7.23-2.81,3,.56,2.81,4.43S71.37,59,73.59,60.93s2.41,2.1,3,2.15.48,2.53-1,2.8S68.34,61,66.91,59.77,54.19,47.71,41.32,42.9,22.5,39.26,22.5,39.26"/><path class="cls-2" d="M35.8,37.1a41.37,41.37,0,0,1,57.49,1.64,67.74,67.74,0,0,1,4.86-6.48,49.25,49.25,0,0,0-71.54,3.15A48.8,48.8,0,0,1,35.8,37.1"/><path class="cls-2" d="M109.43,57.21c-.55,0-1.2,0-1.93-.06s-1.74-.07-2.67-.07l-1.11,0A41.4,41.4,0,0,1,72,108.23a36.91,36.91,0,0,0,2.43,5c.44.76.92,1.53,1.4,2.28A49.29,49.29,0,0,0,112,56.83a6.63,6.63,0,0,1-2.53.38"/><path class="cls-2" d="M53.85,112.77c.34-.25,1.43-.93,2.4-1.66l-.1-.13c-.64-.88-1.4-1.93-2.12-3.07A41.4,41.4,0,0,1,22.32,67.67c0-1.24.06-2.46.17-3.67a9.58,9.58,0,0,0-6-1.61,9.07,9.07,0,0,1-1.66-.13,48.37,48.37,0,0,0-.3,5.41,49.32,49.32,0,0,0,36.26,47.55c.51-1,2-1.71,3-2.45"/></svg>