<svg xmlns="http://www.w3.org/2000/svg" viewBox="0 0 12.17 12.17"><defs><style>.cls-1{fill:#c7c9c8;}</style></defs><title>insta</title><g id="Layer_2" data-name="Layer 2"><g id="Layer_1-2" data-name="Layer 1"><path class="cls-1" d="M7.22,6.18A1.13,1.13,0,0,0,7,5.5a1.16,1.16,0,0,0-1.89,0,1.13,1.13,0,0,0-.22.68,1.17,1.17,0,0,0,2.33,0m.26-1.42H8.6V3.63H7.48ZM8.72,8.21V5.5h-1a1.91,1.91,0,0,1,.13.68,1.81,1.81,0,1,1-3.61,0,1.72,1.72,0,0,1,.13-.68h-1V8.21A.64.64,0,0,0,4,8.84H8.08a.64.64,0,0,0,.64-.63m.64,0A1.27,1.27,0,0,1,8.08,9.48H4A1.27,1.27,0,0,1,2.75,8.21V4.15A1.28,1.28,0,0,1,4,2.87H8.08A1.28,1.28,0,0,1,9.36,4.15V8.21Zm2.81-2.13a6.09,6.09,0,1,0-6.09,6.09,6.09,6.09,0,0,0,6.09-6.09"/></g></g></svg>