<svg xmlns="http://www.w3.org/2000/svg" viewBox="0 0 365.29 108.7"><defs><style>.cls-1{fill:#da1a32;}.cls-2,.cls-3{fill:#fff;}.cls-3{fill-rule:evenodd;}</style></defs><title>logo</title><g id="Layer_2" data-name="Layer 2"><g id="Layer_1-2" data-name="Layer 1"><path class="cls-1" d="M22.5,20.89C8,20.43-.36,26.59,0,27.56c.17.44,6.83-.62,11.3,3.05S14.57,40,15.12,41c.36.64,5.58-.86,10,3,6.77,6,2.82,9.71,3.69,10.47.7.62,3.53-1.59,10.47,0a18.93,18.93,0,0,1,12.09,9c1.56,2.82,1.43,4.3,1.17,5.08-.76,2.21-3.54,4-2.81,4.84s3.26-.82,5.56-.92,1.91,1.06,1,2.67-2.41,6.18-1,10.19,5.79,8.06,5,8.8a39.13,39.13,0,0,1-5.21,3.74c-.93.42,4.15,1,7.12,1.9a63.65,63.65,0,0,1,13.39,6.62c3.48,2.49,3.19,2.36,3.6,2.2S74.86,102.9,71.47,97c-3.57-6.18-3.55-9.16-4.28-9.53-.48-.24-.66.77-2.2,2.51-.74.82-1.17,1.07-1.25,1s-6-7.38-3.24-12.73,4.79-3.58,6.06-2.17,1.5,1.12,2.44.6-1.21-5.58,1.34-7.46,5.74-.71,8.16-3.39,3.84-6.56,5.89-8.38,1.43-2.77,1.62-5,.25-3,.25-3,3.07,1.46,5.13-.46.32-6.15.32-6.15,1.12-3.11,5.89-5.59,12.41-.55,13.28-1.46.29-8.15,6.91-13.37c3.31-2.61,7.85-1.88,9.19-2.61,1.1-.6,1.59-4.88,6.88-8.19,5-3.16,11.51-3.55,11.54-3.7.15-.73-5.77-4.88-17.28-5.45A28.57,28.57,0,0,0,107.3,9.77,63.61,63.61,0,0,0,95.21,23.9a93,93,0,0,0-6.67,12.86,14,14,0,0,0-1.83-5.54c-1.58-2.53-3.87-4.91-5.5-4.45s.58,1.34.54,4.13-.27,6.75-.27,6.75-.08-2.59-4.62-5.47-6.6-3.25-7.23-2.81,3,.56,2.81,4.43-1.07,6.78,1.15,8.76,2.41,2.1,3,2.15.48,2.54-1,2.81-7.22-4.9-8.65-6.12S54.19,29.34,41.32,24.53,22.5,20.89,22.5,20.89"/><path class="cls-2" d="M35.8,18.74a41.38,41.38,0,0,1,57.49,1.63,67.74,67.74,0,0,1,4.86-6.48A49.25,49.25,0,0,0,26.61,17a48.16,48.16,0,0,1,9.19,1.7"/><path class="cls-2" d="M109.43,38.85c-.55,0-1.2,0-1.93-.06s-1.74-.08-2.67-.08c-.39,0-.75,0-1.11,0A41.39,41.39,0,0,1,72,89.86a36.91,36.91,0,0,0,2.43,5c.44.77.92,1.53,1.4,2.29A49.3,49.3,0,0,0,112,38.46a6.67,6.67,0,0,1-2.53.39"/><path class="cls-2" d="M53.85,94.4c.34-.25,1.43-.93,2.4-1.65l-.1-.14c-.64-.88-1.4-1.93-2.12-3.07A41.39,41.39,0,0,1,22.32,49.3c0-1.24.06-2.46.17-3.67a9.58,9.58,0,0,0-6-1.61,9,9,0,0,1-1.66-.12,48.19,48.19,0,0,0-.3,5.4A49.31,49.31,0,0,0,50.83,96.85c.51-1,2-1.71,3-2.45"/><polygon class="cls-2" points="117.99 26.38 144.04 26.35 144.06 38.19 133.38 38.2 133.39 49.42 142.9 49.41 142.91 60.67 133.4 60.68 133.42 85.54 118.04 85.55 117.99 26.38"/><path class="cls-2" d="M147.78,26.35h10.88c7.28,0,12.19.27,14.76.83a10.19,10.19,0,0,1,6.29,4.28q2.43,3.47,2.44,11,0,6.91-1.71,9.29c-1.14,1.58-3.4,2.54-6.76,2.85,3,.77,5.09,1.77,6.14,3a8.91,8.91,0,0,1,2,3.5,52.34,52.34,0,0,1,.4,8.75V85.5H167.89l0-19.67c0-3.16-.25-5.13-.75-5.88s-1.81-1.13-3.93-1.12l0,26.68H147.83Zm15.39,10.11V49.62a6.72,6.72,0,0,0,3.64-.72c.69-.47,1-2,1-4.63V41c0-1.88-.34-3.11-1-3.7a5.71,5.71,0,0,0-3.68-.87"/><polygon class="cls-2" points="185.88 26.32 211.54 26.3 211.55 38.13 201.28 38.14 201.29 49.36 210.9 49.35 210.91 60.61 201.3 60.62 201.31 73.64 212.6 73.62 212.61 85.47 185.93 85.5 185.88 26.32"/><polygon class="cls-2" points="216.35 26.29 242.02 26.27 242.03 38.11 231.76 38.11 231.77 49.34 241.37 49.33 241.38 60.59 231.78 60.59 231.79 73.61 243.07 73.6 243.08 85.45 216.4 85.47 216.35 26.29"/><polygon class="cls-2" points="279.39 26.24 279.4 38.08 270.26 38.08 270.3 85.43 254.91 85.44 254.87 38.1 245.77 38.1 245.76 26.27 279.39 26.24"/><path class="cls-2" d="M306.93,26.22l8.86,59.17H300l-.78-10.64h-5.51l-.91,10.65H276.9l7.77-59.18Zm-8.12,38.06q-1.17-10.06-2.36-24.83-2.32,17-2.91,24.83Z"/><rect class="cls-2" x="319.56" y="26.21" width="15.38" height="59.18"/><polygon class="cls-2" points="355.52 26.18 355.56 73.51 364.93 73.5 364.94 85.35 340.19 85.37 340.14 26.19 355.52 26.18"/><path class="cls-2" d="M118.16,90.53h6.61a3.67,3.67,0,0,1,2.54.8,2.58,2.58,0,0,1,.88,2,2.49,2.49,0,0,1-.62,1.72,2.94,2.94,0,0,1-1.24.75,3,3,0,0,1,1.81,1,2.64,2.64,0,0,1,.58,1.77,3,3,0,0,1-1.54,2.68,3.64,3.64,0,0,1-1.34.36,14,14,0,0,1-1.58.16h-6.1Zm3.57,4.4h1.54a1.77,1.77,0,0,0,1.14-.27,1.05,1.05,0,0,0,.32-.81,1,1,0,0,0-.32-.77,1.78,1.78,0,0,0-1.12-.27h-1.56Zm0,4.42h1.8a2.07,2.07,0,0,0,1.29-.31,1.11,1.11,0,0,0,.37-.86,1,1,0,0,0-.37-.8,2.15,2.15,0,0,0-1.3-.31h-1.79Z"/><path class="cls-2" d="M130.62,101.77V90.53h5.88a8.82,8.82,0,0,1,2.5.27,2.69,2.69,0,0,1,1.39,1,3.06,3.06,0,0,1,.53,1.83,2.94,2.94,0,0,1-1.51,2.71,4.39,4.39,0,0,1-1.24.45,3.12,3.12,0,0,1,.91.42,2.67,2.67,0,0,1,.57.59,3.24,3.24,0,0,1,.49.69l1.72,3.26h-4L136,98.33a2.58,2.58,0,0,0-.63-.86,1.54,1.54,0,0,0-.87-.27h-.31v4.57Zm3.54-6.69h1.49a5.52,5.52,0,0,0,.94-.15.91.91,0,0,0,.57-.36,1,1,0,0,0,.22-.65,1.07,1.07,0,0,0-.35-.84,2.2,2.2,0,0,0-1.32-.28h-1.55Z"/><polygon class="cls-2" points="142.98 90.53 152.44 90.53 152.44 92.93 146.52 92.93 146.52 94.72 152.01 94.72 152.01 97.01 146.52 97.01 146.52 99.22 152.61 99.22 152.61 101.77 142.98 101.77 142.98 90.53"/><polygon class="cls-2" points="153.33 90.53 156.68 90.53 157.89 96.81 159.65 90.53 163 90.53 164.76 96.81 165.97 90.53 169.3 90.53 166.79 101.77 163.33 101.77 161.33 94.69 159.33 101.77 155.87 101.77 153.33 90.53"/><rect class="cls-2" x="170.61" y="90.53" width="3.53" height="11.24"/><polygon class="cls-3" points="176.7 90.53 180 90.53 184.31 96.75 184.31 90.53 187.63 90.53 187.63 101.77 184.31 101.77 180.03 95.59 180.03 101.77 176.7 101.77 176.7 90.53"/><path class="cls-3" d="M195.71,97.7V95.35h5.46v4.8a11.93,11.93,0,0,1-2.77,1.44,9.62,9.62,0,0,1-2.85.37,7.09,7.09,0,0,1-3.32-.68,4.81,4.81,0,0,1-2-2,6.62,6.62,0,0,1-.7-3.1,6.29,6.29,0,0,1,.77-3.2,4.92,4.92,0,0,1,2.26-2.06,7.17,7.17,0,0,1,3.12-.56,9,9,0,0,1,2.83.34,3.73,3.73,0,0,1,1.56,1,4.78,4.78,0,0,1,.93,1.81l-3.4.6a1.89,1.89,0,0,0-.71-1,2.59,2.59,0,0,0-3.13.46,3.73,3.73,0,0,0-.7,2.51,3.94,3.94,0,0,0,.7,2.61,2.52,2.52,0,0,0,1.94.78,3.52,3.52,0,0,0,1.13-.17,5.79,5.79,0,0,0,1.24-.58v-1Z"/><path class="cls-3" d="M220.82,97.18l3.1.91a5.54,5.54,0,0,1-1,2.15,4.28,4.28,0,0,1-1.66,1.29,6.2,6.2,0,0,1-2.53.44,7.32,7.32,0,0,1-3-.54,4.7,4.7,0,0,1-2-1.87,6.29,6.29,0,0,1-.86-3.44A6,6,0,0,1,222,91.2a5,5,0,0,1,1.84,2.63l-3.13.68a2.61,2.61,0,0,0-.33-.74,1.87,1.87,0,0,0-.74-.61,2,2,0,0,0-1-.22,2,2,0,0,0-1.83,1,3.9,3.9,0,0,0-.5,2.21,4.22,4.22,0,0,0,.58,2.57,2.29,2.29,0,0,0,3.16.13,3.39,3.39,0,0,0,.74-1.62"/><path class="cls-3" d="M225.2,96.16a5.73,5.73,0,0,1,1.55-4.29,5.93,5.93,0,0,1,4.34-1.54,6,6,0,0,1,4.4,1.52A5.63,5.63,0,0,1,237,96.06a6.79,6.79,0,0,1-.68,3.23,4.67,4.67,0,0,1-1.94,2,6.51,6.51,0,0,1-3.18.7,7.46,7.46,0,0,1-3.2-.6A4.9,4.9,0,0,1,226,99.44a6.25,6.25,0,0,1-.78-3.28m3.53,0a3.71,3.71,0,0,0,.63,2.45,2.24,2.24,0,0,0,1.76.75,2.17,2.17,0,0,0,1.75-.74,4.05,4.05,0,0,0,.62-2.61,3.46,3.46,0,0,0-.64-2.32,2.27,2.27,0,0,0-1.77-.74,2.21,2.21,0,0,0-1.72.75,3.74,3.74,0,0,0-.63,2.46"/><rect class="cls-2" x="238.31" y="98.65" width="3.4" height="3.12"/><path class="cls-1" d="M260.75,94.33h-3.22v-1a2,2,0,0,0-.12-.88.44.44,0,0,0-.41-.19.51.51,0,0,0-.47.25,1.47,1.47,0,0,0-.16.78,2.18,2.18,0,0,0,.18,1,2.48,2.48,0,0,0,1,.81,9.83,9.83,0,0,1,2.92,2.26,5.13,5.13,0,0,1,.6,2.83,4.85,4.85,0,0,1-.34,2.1,2.58,2.58,0,0,1-1.28,1.13,5.18,5.18,0,0,1-2.22.46,5,5,0,0,1-2.38-.53,2.58,2.58,0,0,1-1.28-1.34,6.65,6.65,0,0,1-.31-2.31v-.87h3.22v1.62a2.14,2.14,0,0,0,.13,1,.53.53,0,0,0,.49.21.57.57,0,0,0,.51-.27,1.56,1.56,0,0,0,.17-.8,2.52,2.52,0,0,0-.32-1.54,10.06,10.06,0,0,0-1.62-1.21,15.74,15.74,0,0,1-1.71-1.24,3.06,3.06,0,0,1-.7-1.07,6.21,6.21,0,0,1,.12-4,2.66,2.66,0,0,1,1.26-1.11,5.11,5.11,0,0,1,2.1-.4,5.49,5.49,0,0,1,2.3.44,2.37,2.37,0,0,1,1.26,1.1,5.72,5.72,0,0,1,.31,2.25Z"/><path class="cls-1" d="M268.36,90.3l2,13.32H266.8l-.19-2.4h-1.23l-.21,2.4h-3.58l1.76-13.32Zm-1.84,8.56c-.17-1.5-.35-3.37-.52-5.59-.36,2.55-.58,4.42-.67,5.59Z"/><path class="cls-1" d="M278.91,90.3v13.32h-3l-1.8-6.06v6.06h-2.89V90.3h2.89l1.94,6v-6Z"/><path class="cls-1" d="M289.75,90.3l2,13.32H288.2l-.19-2.4h-1.24l-.21,2.4H283l1.76-13.32Zm-1.83,8.56c-.17-1.5-.35-3.37-.53-5.59-.35,2.55-.57,4.42-.66,5.59Z"/><path class="cls-1" d="M300.3,90.3v13.32h-3l-1.8-6.06v6.06h-2.89V90.3h2.89l1.94,6v-6Z"/><path class="cls-1" d="M308.92,90.3V93h-2.06v10.65H303.4V93h-2V90.3Z"/><path class="cls-1" d="M317.87,98.1c0,1.34,0,2.28-.09,2.84a3.21,3.21,0,0,1-1.94,2.59,5.44,5.44,0,0,1-3.89,0,3.22,3.22,0,0,1-1.37-1A3.16,3.16,0,0,1,310,101c-.06-.55-.1-1.51-.1-2.88V95.82A26.49,26.49,0,0,1,310,93a3.13,3.13,0,0,1,.59-1.52,3.17,3.17,0,0,1,1.34-1.07,5.46,5.46,0,0,1,3.9,0,3.34,3.34,0,0,1,1.37,1,3.18,3.18,0,0,1,.61,1.52,26.88,26.88,0,0,1,.1,2.88Zm-3.46-4.37a4.52,4.52,0,0,0-.1-1.19.41.41,0,0,0-.43-.26.46.46,0,0,0-.41.21,2.86,2.86,0,0,0-.15,1.24v6.21a6.17,6.17,0,0,0,.1,1.43.41.41,0,0,0,.44.27.42.42,0,0,0,.45-.31,6.3,6.3,0,0,0,.1-1.49Z"/><path class="cls-1" d="M327.14,90.3v13.32h-3l-1.8-6.06v6.06h-2.9V90.3h2.9l1.94,6v-6Z"/><path class="cls-1" d="M332.25,90.3v13.32h-3.46V90.3Z"/><path class="cls-1" d="M341.8,98.1c0,1.34,0,2.28-.09,2.84a3.18,3.18,0,0,1-.6,1.53,3.22,3.22,0,0,1-1.34,1.06,5.44,5.44,0,0,1-3.89,0,3.22,3.22,0,0,1-1.37-1,3.16,3.16,0,0,1-.62-1.52,26.88,26.88,0,0,1-.1-2.88V95.82a26.49,26.49,0,0,1,.1-2.84,3.13,3.13,0,0,1,.59-1.52,3.17,3.17,0,0,1,1.34-1.07,5,5,0,0,1,2-.37,5.09,5.09,0,0,1,1.92.35,3.25,3.25,0,0,1,1.36,1,3.1,3.1,0,0,1,.62,1.52,26.88,26.88,0,0,1,.1,2.88Zm-3.46-4.37a4.52,4.52,0,0,0-.1-1.19.41.41,0,0,0-.43-.26.46.46,0,0,0-.41.21,2.86,2.86,0,0,0-.15,1.24v6.21a5.62,5.62,0,0,0,.1,1.43.41.41,0,0,0,.44.27.43.43,0,0,0,.45-.31,6.3,6.3,0,0,0,.1-1.49Z"/><path class="cls-1" d="M345.18,101v1.19a4.7,4.7,0,0,1-.22,1.54,2.31,2.31,0,0,1-.77,1,3,3,0,0,1-1.24.56v-1a1,1,0,0,0,.56-.74H343V101Z"/><path class="cls-1" d="M356.62,90.3V93h-2.06v10.65H351.1V93h-2.05V90.3Z"/><path class="cls-1" d="M364.68,90.3l-1.22,5.89,1.83,7.43h-3.2a43.17,43.17,0,0,1-1-4.85c-.09.84-.21,1.73-.37,2.68l-.33,2.17H357l1.26-7.43L357,90.3h3.35c.06.37.18,1,.36,1.84.15.65.26,1.25.36,1.8l.74-3.64Z"/></g></g></svg>