<svg xmlns="http://www.w3.org/2000/svg" viewBox="0 0 145.4 108.7"><defs><style>.cls-1{fill:#da1a32;}.cls-2{fill:#fff;}</style></defs><title>logo-bat</title><g id="Layer_2" data-name="Layer 2"><g id="Layer_1-2" data-name="Layer 1"><path class="cls-1" d="M22.5,20.89C8,20.43-.36,26.59,0,27.56c.17.44,6.83-.62,11.3,3.05S14.57,40,15.12,41c.36.64,5.58-.86,10,3,6.77,6,2.82,9.71,3.69,10.47.7.62,3.53-1.59,10.47,0a18.93,18.93,0,0,1,12.09,9c1.56,2.82,1.43,4.3,1.17,5.08-.76,2.21-3.54,4-2.81,4.84s3.26-.82,5.56-.92,1.91,1.06,1,2.67-2.41,6.18-1,10.19,5.79,8.06,5,8.8a39.13,39.13,0,0,1-5.21,3.74c-.93.42,4.15,1,7.12,1.9a63.65,63.65,0,0,1,13.39,6.62c3.48,2.49,3.19,2.36,3.6,2.2S74.86,102.9,71.47,97c-3.57-6.18-3.55-9.16-4.28-9.53-.48-.24-.66.77-2.2,2.51-.74.82-1.17,1.07-1.25,1s-6-7.38-3.24-12.73,4.79-3.58,6.06-2.17,1.5,1.12,2.44.6-1.21-5.58,1.34-7.46,5.74-.71,8.16-3.39,3.84-6.56,5.89-8.38,1.43-2.77,1.62-5,.25-3,.25-3,3.07,1.46,5.13-.46.32-6.15.32-6.15,1.12-3.11,5.89-5.59,12.41-.55,13.28-1.46.29-8.15,6.91-13.37c3.31-2.61,7.85-1.88,9.19-2.61,1.1-.6,1.59-4.88,6.88-8.19,5-3.16,11.51-3.55,11.54-3.7.15-.73-5.77-4.88-17.28-5.45A28.57,28.57,0,0,0,107.3,9.77,63.61,63.61,0,0,0,95.21,23.9a93,93,0,0,0-6.67,12.86,14,14,0,0,0-1.83-5.54c-1.58-2.53-3.87-4.91-5.5-4.45s.58,1.34.54,4.13-.27,6.75-.27,6.75-.08-2.59-4.62-5.47-6.6-3.25-7.23-2.81,3,.56,2.81,4.43-1.07,6.78,1.15,8.76,2.41,2.1,3,2.15.48,2.54-1,2.81-7.22-4.9-8.65-6.12S54.19,29.34,41.32,24.53,22.5,20.89,22.5,20.89"/><path class="cls-2" d="M35.8,18.74a41.38,41.38,0,0,1,57.49,1.63,67.74,67.74,0,0,1,4.86-6.48A49.25,49.25,0,0,0,26.61,17a48.16,48.16,0,0,1,9.19,1.7"/><path class="cls-2" d="M109.43,38.85c-.55,0-1.2,0-1.93-.06s-1.74-.08-2.67-.08c-.39,0-.75,0-1.11,0A41.39,41.39,0,0,1,72,89.86a36.91,36.91,0,0,0,2.43,5c.44.77.92,1.53,1.4,2.29A49.3,49.3,0,0,0,112,38.46a6.67,6.67,0,0,1-2.53.39"/><path class="cls-2" d="M53.85,94.4c.34-.25,1.43-.93,2.4-1.65l-.1-.14c-.64-.88-1.4-1.93-2.12-3.07A41.39,41.39,0,0,1,22.32,49.3c0-1.24.06-2.46.17-3.67a9.58,9.58,0,0,0-6-1.61,9,9,0,0,1-1.66-.12,48.19,48.19,0,0,0-.3,5.4A49.31,49.31,0,0,0,50.83,96.85c.51-1,2-1.71,3-2.45"/></g></g></svg>