<svg xmlns="http://www.w3.org/2000/svg" viewBox="0 0 12.17 12.17"><defs><style>.cls-1{fill:#c7c9c8;}</style></defs><title>twitter</title><g id="Layer_2" data-name="Layer 2"><g id="Layer_1-2" data-name="Layer 1"><path class="cls-1" d="M9.15,4.86v.2A4.33,4.33,0,0,1,4.79,9.42a4.4,4.4,0,0,1-2.35-.69l.37,0a3,3,0,0,0,1.9-.66A1.52,1.52,0,0,1,3.28,7a1.36,1.36,0,0,0,.29,0A1.34,1.34,0,0,0,4,7,1.53,1.53,0,0,1,2.74,5.5v0a1.49,1.49,0,0,0,.7.19A1.5,1.5,0,0,1,2.75,4.4,1.57,1.57,0,0,1,3,3.62,4.39,4.39,0,0,0,6.12,5.23a2.09,2.09,0,0,1,0-.35A1.53,1.53,0,0,1,7.61,3.35a1.51,1.51,0,0,1,1.12.48,3.31,3.31,0,0,0,1-.37A1.5,1.5,0,0,1,9,4.3a2.61,2.61,0,0,0,.88-.24,3,3,0,0,1-.76.8M6.08,0a6.09,6.09,0,1,0,6.09,6.08A6.08,6.08,0,0,0,6.08,0"/></g></g></svg>